<?xml version="1.0" encoding="utf-8"?>
<!-- Generator: Adobe Illustrator 24.3.0, SVG Export Plug-In . SVG Version: 6.00 Build 0)  -->
<svg version="1.1" id="Слой_1" xmlns="http://www.w3.org/2000/svg" xmlns:xlink="http://www.w3.org/1999/xlink" x="0px" y="0px"
	 viewBox="0 0 800 800" style="enable-background:new 0 0 800 800;" xml:space="preserve">
<style type="text/css">
	.st0{fill:#B3B3B3;stroke:#000000;stroke-miterlimit:10;}
	.st1{fill:none;stroke:#000000;stroke-width:3;stroke-miterlimit:10;}
	.st2{fill:#DE2828;stroke:#000000;stroke-miterlimit:10;}
	.st3{font-family:'MyriadPro-Regular';}
	.st4{font-size:36px;}
	.st5{font-size:21.2294px;}
</style>
<rect x="537" y="24" class="st0" width="31" height="194"/>
<rect x="537" y="218" class="st0" width="31" height="194"/>
<rect x="537" y="582" class="st0" width="31" height="194"/>
<rect x="451" y="582" class="st0" width="31" height="194"/>
<rect x="420" y="582" class="st0" width="31" height="194"/>
<rect x="232" y="582" class="st0" width="31" height="194"/>
<rect x="232" y="24" class="st0" width="31" height="194"/>
<rect x="321" y="24" class="st0" width="31" height="194"/>
<rect x="352" y="24" class="st0" width="31" height="194"/>
<rect x="466" y="24" class="st0" width="31" height="194"/>
<rect x="435" y="24" class="st0" width="31" height="194"/>
<rect x="321" y="218" class="st0" width="31" height="194"/>
<rect x="352" y="218" class="st0" width="31" height="194"/>
<rect x="466" y="218" class="st0" width="31" height="194"/>
<rect x="435" y="218" class="st0" width="31" height="194"/>
<polygon class="st1" points="231.6,121.7 231.6,776 567.4,776 567.4,23.5 231.6,23.5 "/>
<circle class="st2" cx="546.5" cy="436.5" r="22"/>
<text transform="matrix(1 0 0 1 237.6421 687.7061)" class="st3 st4 1">1</text>
<text transform="matrix(1 0 0 1 425.6421 687.7061)" class="st3 st4 2">2</text>
<text transform="matrix(1 0 0 1 459.6421 687.7061)" class="st3 st4 3">3</text>
<text transform="matrix(1 0 0 1 237.2197 123.3711)" class="st3 st5 10">10</text>
<text transform="matrix(1 0 0 1 325.2197 123.3711)" class="st3 st5 11">11</text>
<text transform="matrix(1 0 0 1 356.2197 123.3711)" class="st3 st5 12">12</text>
<text transform="matrix(1 0 0 1 440.2197 123.3711)" class="st3 st5 13">13</text>
<text transform="matrix(1 0 0 1 470.2197 123.3711)" class="st3 st5 14">14</text>
<text transform="matrix(1 0 0 1 541.2197 123.3711)" class="st3 st5 15">15</text>
<text transform="matrix(1 0 0 1 543.6421 326.7061)" class="st3 st4 9">9</text>
<text transform="matrix(1 0 0 1 472.6421 326.7061)" class="st3 st4 8">8</text>
<text transform="matrix(1 0 0 1 440.6421 326.7061)" class="st3 st4 7">7</text>
<text transform="matrix(1 0 0 1 359.6421 326.7061)" class="st3 st4 6">6</text>
<text transform="matrix(1 0 0 1 326.6421 326.7061)" class="st3 st4 5">5</text>
<text transform="matrix(1 0 0 1 543.6421 687.7061)" class="st3 st4 4">4</text>
</svg>
